<svg xmlns="http://www.w3.org/2000/svg" width="465" height="113" viewBox="0 0 465 113">
  <defs>
    <style>
      .cls-1, .cls-4 {
        fill-rule: evenodd;
      }

      .cls-2 {
        font-size: 80.236px;
        fill: #fff;
      }

      .cls-2, .cls-3 {
        font-family: "Myriad Pro";
        font-weight: 700;
      }

      .cls-3 {
        font-size: 240.709px;
        fill: #0070c0;
      }

      .cls-4 {
        fill: #e40a16;
      }
    </style>
  </defs>
  <path id="Rounded_Rectangle_1" data-name="Rounded Rectangle 1" class="cls-1" d="M408.441,5.31h35.038a9.981,9.981,0,0,1,9.981,9.981V50.329a9.981,9.981,0,0,1-9.981,9.981H408.441a9.981,9.981,0,0,1-9.981-9.981V15.291A9.981,9.981,0,0,1,408.441,5.31Z"/>
  <text id="_1" data-name="1" class="cls-2" transform="translate(411.622 51.453) scale(0.665 0.665)">1</text>
  <text id="Level" class="cls-3" transform="translate(17.96 110.898) scale(0.665 0.665)">Level</text>
  <path id="Rounded_Rectangle_2" data-name="Rounded Rectangle 2" class="cls-4" d="M7.627,3H8.963A3.327,3.327,0,0,1,12.29,6.327V109.673A3.327,3.327,0,0,1,8.963,113H7.627A3.327,3.327,0,0,1,4.3,109.673V6.327A3.327,3.327,0,0,1,7.627,3Z"/>
</svg>
